<svg viewBox="0 0 20 21" fill="none" xmlns="http://www.w3.org/2000/svg">
  <path
    d="M11.6667 15.4998C15.3486 15.4998 18.3333 12.5151 18.3333 8.83317C18.3333 5.15127 15.3486 2.1665 11.6667 2.1665C7.98477 2.1665 5 5.15127 5 8.83317C5 12.5151 7.98477 15.4998 11.6667 15.4998Z"
    stroke="currentColor" stroke-width="1.5" stroke-linecap="round" />
  <path
    d="M2.58375 9.6665C2.00283 10.5886 1.66675 11.6805 1.66675 12.8508C1.66675 16.1548 4.34522 18.8332 7.64929 18.8332C8.81958 18.8332 9.91133 18.4972 10.8334 17.9163"
    stroke="currentColor" stroke-width="1.5" stroke-linecap="round" />
  <path
    d="M10 8.8335H12.9167M10 8.8335V5.91683H11.6667M10 8.8335V11.7502H11.6667M12.9167 8.8335C13.607 8.8335 14.1667 8.18058 14.1667 7.37516C14.1667 6.56975 13.607 5.91683 12.9167 5.91683H11.6667M12.9167 8.8335C13.607 8.8335 14.1667 9.48641 14.1667 10.2918C14.1667 11.0972 13.607 11.7502 12.9167 11.7502H11.6667M11.6667 5.91683V5.0835M11.6667 11.7502V12.5835"
    stroke="currentColor" stroke-width="1.5" stroke-linecap="round" />
</svg>