<svg viewBox="0 0 20 21" fill="none" xmlns="http://www.w3.org/2000/svg">
  <path
    d="M2.5 9.6665C2.5 6.54173 2.5 4.97934 3.29576 3.88406C3.55276 3.53034 3.86383 3.21926 4.21756 2.96226C5.31283 2.1665 6.87522 2.1665 10 2.1665C13.1247 2.1665 14.6872 2.1665 15.7824 2.96226C16.1362 3.21926 16.4472 3.53034 16.7042 3.88406C17.5 4.97934 17.5 6.54173 17.5 9.6665V11.3332C17.5 14.4579 17.5 16.0203 16.7042 17.1156C16.4472 17.4693 16.1362 17.7804 15.7824 18.0374C14.6872 18.8332 13.1247 18.8332 10 18.8332C6.87522 18.8332 5.31283 18.8332 4.21756 18.0374C3.86383 17.7804 3.55276 17.4693 3.29576 17.1156C2.5 16.0203 2.5 14.4579 2.5 11.3332V9.6665Z"
    stroke="currentColor" stroke-width="1.5" stroke-linecap="round" stroke-linejoin="round" />
  <path d="M12.4999 8.4165H5.83325M8.33325 12.5832H5.83325" stroke="currentColor" stroke-width="1.5"
    stroke-linecap="round" stroke-linejoin="round" />
</svg>