<svg viewBox="0 0 20 21" fill="none" xmlns="http://www.w3.org/2000/svg">
  <path
    d="M18.3334 10.4998C18.3334 15.1022 14.6024 18.8332 10.0001 18.8332C5.39771 18.8332 1.66675 15.1022 1.66675 10.4998C1.66675 5.89746 5.39771 2.1665 10.0001 2.1665C14.6024 2.1665 18.3334 5.89746 18.3334 10.4998Z"
    stroke="currentColor" stroke-width="1.5" />
  <path
    d="M12.2916 8.41667C12.2916 9.68233 11.2656 10.7083 9.99992 10.7083C8.73425 10.7083 7.70825 9.68233 7.70825 8.41667C7.70825 7.15102 8.73425 6.125 9.99992 6.125C11.2656 6.125 12.2916 7.15102 12.2916 8.41667Z"
    stroke="currentColor" stroke-width="1.5" />
  <path
    d="M4.58325 16.3337L5.05025 15.5164C5.79209 14.2182 7.17269 13.417 8.66797 13.417H11.3319C12.8271 13.417 14.2077 14.2182 14.9496 15.5164L15.4166 16.3337"
    stroke="currentColor" stroke-width="1.5" stroke-linecap="round" stroke-linejoin="round" />
</svg>