<svg width="24" height="24" viewBox="0 0 24 24" fill="none" xmlns="http://www.w3.org/2000/svg">
<rect width="24" height="24" rx="8" fill="white" fill-opacity="0.1"/>
<g filter="url(#filter0_d_50_1099)">
<path d="M11.7564 9.88416C11.438 9.88416 11.1792 9.62426 11.1792 9.30248C11.1792 8.98071 11.438 8.72081 11.7564 8.72081C12.0748 8.72081 12.3336 8.98071 12.3336 9.30248C12.3336 9.62426 12.0748 9.88416 11.7564 9.88416ZM8.50377 9.88416C8.18537 9.88416 7.9266 9.62426 7.9266 9.30248C7.9266 8.98071 8.18537 8.72081 8.50377 8.72081C8.82217 8.72081 9.08094 8.98071 9.08094 9.30248C9.08094 9.62426 8.82217 9.88416 8.50377 9.88416ZM10.1295 6.51562C7.43493 6.51562 5.25 8.35065 5.25 10.6143C5.25 11.8497 5.90705 12.9613 6.93652 13.7129C7.01865 13.7725 7.07265 13.8692 7.07265 13.9806C7.07265 14.0166 7.06478 14.0504 7.05578 14.0853C6.97364 14.3947 6.84201 14.8886 6.83638 14.9122C6.82626 14.9516 6.81051 14.991 6.81051 15.0326C6.81051 15.1226 6.88364 15.1968 6.97364 15.1968C7.00852 15.1968 7.03777 15.1833 7.06703 15.1665L8.13587 14.5443C8.21575 14.4982 8.30125 14.4689 8.39464 14.4689C8.44414 14.4689 8.49252 14.4768 8.53865 14.4903C9.03707 14.6343 9.57486 14.7153 10.1318 14.7153C10.2218 14.7153 10.3107 14.7131 10.3996 14.7086C10.2938 14.389 10.2353 14.0526 10.2353 13.7038C10.2353 11.6393 12.2278 9.96516 14.6862 9.96516C14.775 9.96516 14.7975 9.96854 14.8853 9.97191C14.5163 8.01312 12.5642 6.51562 10.1295 6.51562Z" fill="white" fill-opacity="0.4"/>
<path d="M16.0397 13.1209C15.7595 13.1209 15.5322 12.8914 15.5322 12.609C15.5322 12.3266 15.7595 12.097 16.0397 12.097C16.3198 12.097 16.5471 12.3266 16.5471 12.609C16.5471 12.8914 16.3198 13.1209 16.0397 13.1209ZM13.3282 13.1209C13.048 13.1209 12.8208 12.8914 12.8208 12.609C12.8208 12.3266 13.048 12.097 13.3282 12.097C13.6083 12.097 13.8356 12.3266 13.8356 12.609C13.8356 12.8914 13.6083 13.1209 13.3282 13.1209ZM17.3448 16.2835C18.2021 15.6568 18.75 14.7309 18.75 13.7014C18.75 11.8146 16.9296 10.2856 14.6839 10.2856C12.4382 10.2856 10.6167 11.8146 10.6167 13.7014C10.6167 15.5882 12.4371 17.1172 14.6839 17.1172C15.1475 17.1172 15.5964 17.0508 16.0115 16.9305C16.0498 16.9192 16.0892 16.9124 16.1308 16.9124C16.2084 16.9124 16.2793 16.9361 16.3468 16.9755L17.2368 17.493C17.2615 17.5076 17.2863 17.5189 17.3155 17.5189C17.3909 17.5189 17.4516 17.4581 17.4516 17.3827C17.4516 17.349 17.4381 17.3152 17.4303 17.2826C17.4246 17.2635 17.3155 16.8506 17.2469 16.594C17.239 16.5648 17.2323 16.5367 17.2323 16.5074C17.2323 16.4152 17.2773 16.3342 17.3459 16.2846" fill="white" fill-opacity="0.4"/>
</g>
<defs>
<filter id="filter0_d_50_1099" x="3.25" y="6.51562" width="17.5" height="15.0034" filterUnits="userSpaceOnUse" color-interpolation-filters="sRGB">
<feFlood flood-opacity="0" result="BackgroundImageFix"/>
<feColorMatrix in="SourceAlpha" type="matrix" values="0 0 0 0 0 0 0 0 0 0 0 0 0 0 0 0 0 0 127 0" result="hardAlpha"/>
<feOffset dy="2"/>
<feGaussianBlur stdDeviation="1"/>
<feComposite in2="hardAlpha" operator="out"/>
<feColorMatrix type="matrix" values="0 0 0 0 0 0 0 0 0 0 0 0 0 0 0 0 0 0 0.5 0"/>
<feBlend mode="normal" in2="BackgroundImageFix" result="effect1_dropShadow_50_1099"/>
<feBlend mode="normal" in="SourceGraphic" in2="effect1_dropShadow_50_1099" result="shape"/>
</filter>
</defs>
</svg>
