<svg width="24" height="24" viewBox="0 0 24 24" fill="none" xmlns="http://www.w3.org/2000/svg">
<rect width="24" height="24" rx="8" fill="white" fill-opacity="0.1"/>
<g filter="url(#filter0_d_50_1110)">
<path d="M4.5 19.058L5.52893 15.3217C4.8928 14.225 4.55909 12.983 4.56257 11.7133C4.56257 7.73473 7.81623 4.5 11.8103 4.5C13.75 4.5 15.5715 5.25074 16.9376 6.61382C18.3072 7.97691 19.0615 9.78974 19.058 11.7167C19.058 15.6953 15.8044 18.93 11.8068 18.93H11.8033C10.5902 18.93 9.39786 18.6256 8.33764 18.0513L4.5 19.058ZM8.52188 16.747L8.74088 16.8785C9.66553 17.4251 10.7257 17.7122 11.8068 17.7157H11.8103C15.13 17.7157 17.8344 15.0276 17.8344 11.7202C17.8344 10.1184 17.2087 8.61347 16.072 7.47872C14.9353 6.34397 13.4197 5.72124 11.8103 5.72124C8.49059 5.71778 5.78617 8.4059 5.78617 11.7133C5.78617 12.8446 6.10249 13.9482 6.70734 14.903L6.84986 15.1314L6.24154 17.3421L8.52188 16.747Z" fill="white" fill-opacity="0.4"/>
<path fill-rule="evenodd" clip-rule="evenodd" d="M9.99906 8.69666C9.86349 8.39567 9.72097 8.38876 9.59236 8.3853C9.48807 8.38184 9.36641 8.38184 9.24474 8.38184C9.12308 8.38184 8.92842 8.42681 8.76156 8.60671C8.59471 8.78661 8.12891 9.22252 8.12891 10.1116C8.12891 10.9973 8.77894 11.8553 8.86932 11.9764C8.9597 12.0975 10.1242 13.976 11.9631 14.6991C13.4926 15.3011 13.8054 15.18 14.1357 15.1488C14.4659 15.1177 15.2063 14.7129 15.3593 14.2908C15.5087 13.8688 15.5087 13.509 15.4635 13.4329C15.4183 13.3568 15.2967 13.3118 15.1159 13.2218C14.9352 13.1319 14.0453 12.696 13.8784 12.6337C13.7116 12.5749 13.5899 12.5437 13.4717 12.7236C13.35 12.9035 13.0024 13.3083 12.8982 13.4294C12.7939 13.5505 12.6861 13.5643 12.5054 13.4744C12.3246 13.3844 11.7406 13.1942 11.0489 12.5783C10.5101 12.1009 10.1451 11.5093 10.0408 11.3294C9.93649 11.1495 10.0303 11.0527 10.1207 10.9627C10.2007 10.8831 10.3015 10.7517 10.3919 10.6479C10.4822 10.5441 10.5135 10.468 10.5726 10.3469C10.6317 10.2258 10.6039 10.122 10.5587 10.0321C10.5135 9.94558 10.159 9.053 9.99906 8.69666Z" fill="white" fill-opacity="0.4"/>
</g>
<defs>
<filter id="filter0_d_50_1110" x="2.5" y="4.5" width="18.5581" height="18.5581" filterUnits="userSpaceOnUse" color-interpolation-filters="sRGB">
<feFlood flood-opacity="0" result="BackgroundImageFix"/>
<feColorMatrix in="SourceAlpha" type="matrix" values="0 0 0 0 0 0 0 0 0 0 0 0 0 0 0 0 0 0 127 0" result="hardAlpha"/>
<feOffset dy="2"/>
<feGaussianBlur stdDeviation="1"/>
<feComposite in2="hardAlpha" operator="out"/>
<feColorMatrix type="matrix" values="0 0 0 0 0 0 0 0 0 0 0 0 0 0 0 0 0 0 0.5 0"/>
<feBlend mode="normal" in2="BackgroundImageFix" result="effect1_dropShadow_50_1110"/>
<feBlend mode="normal" in="SourceGraphic" in2="effect1_dropShadow_50_1110" result="shape"/>
</filter>
</defs>
</svg>
