<svg viewBox="0 0 16 17" fill="none" xmlns="http://www.w3.org/2000/svg">
<rect y="0.5" width="16" height="16" rx="8" fill="#26A17B"/>
<path fill-rule="evenodd" clip-rule="evenodd" d="M8.76258 8.7594V8.75862C8.71987 8.76173 8.49972 8.77493 8.00854 8.77493C7.61638 8.77493 7.34031 8.76328 7.24324 8.75862V8.75979C5.73361 8.69339 4.60683 8.43053 4.60683 8.11602C4.60683 7.8019 5.73361 7.53904 7.24324 7.47148V8.49809C7.34187 8.50508 7.62453 8.52177 8.01514 8.52177C8.4838 8.52177 8.71871 8.50236 8.76258 8.49848V7.47225C10.2691 7.53943 11.3932 7.80229 11.3932 8.11602C11.3932 8.43053 10.2691 8.69262 8.76258 8.7594ZM8.76258 7.36548V6.44681H10.8647V5.0459H5.1411V6.44681H7.24324V7.36509C5.53482 7.44352 4.25 7.7821 4.25 8.18746C4.25 8.59283 5.53482 8.93102 7.24324 9.00984V11.9538H8.76258V9.00906C10.4683 8.93063 11.75 8.59244 11.75 8.18746C11.75 7.78249 10.4683 7.4443 8.76258 7.36548Z" fill="white"/>
</svg>
