<svg width="8" height="7" viewBox="0 0 8 7" fill="none" xmlns="http://www.w3.org/2000/svg">
<path fill-rule="evenodd" clip-rule="evenodd" d="M4.57287 3.76311V3.76233C4.52959 3.76547 4.30649 3.77885 3.80876 3.77885C3.41135 3.77885 3.1316 3.76705 3.03323 3.76233V3.76351C1.50344 3.69622 0.361596 3.42985 0.361596 3.11114C0.361596 2.79282 1.50344 2.52645 3.03323 2.45798V3.49831C3.13317 3.50539 3.41962 3.52231 3.81544 3.52231C4.29036 3.52231 4.52841 3.50264 4.57287 3.4987V2.45877C6.09952 2.52684 7.2386 2.79322 7.2386 3.11114C7.2386 3.42985 6.09952 3.69544 4.57287 3.76311ZM4.57287 2.35057V1.41963H6.70309V0H0.903006V1.41963H3.03323V2.35018C1.30198 2.42966 0 2.77276 0 3.18354C0 3.59432 1.30198 3.93703 3.03323 4.0169V7.00016H4.57287V4.01611C6.30137 3.93663 7.6002 3.59392 7.6002 3.18354C7.6002 2.77315 6.30137 2.43044 4.57287 2.35057Z" fill="white"/>
</svg>
