<svg width="50" height="51" viewBox="0 0 50 51" fill="none" xmlns="http://www.w3.org/2000/svg">
<path d="M40.816 17.5921C39.3661 17.5921 38.18 18.7782 38.18 20.2281V30.7721C38.18 32.222 39.3661 33.4081 40.816 33.4081C42.2658 33.4081 43.4519 32.222 43.4519 30.7721V20.2281C43.4519 18.7798 42.2642 17.5921 40.816 17.5921ZM9.18403 17.5921C7.73413 17.5921 6.5481 18.7782 6.5481 20.2281V30.7721C6.5481 32.222 7.73418 33.4081 9.18403 33.4081C10.6339 33.4081 11.82 32.222 11.82 30.7721V20.2281C11.82 18.7798 10.6339 17.5921 9.18403 17.5921ZM13.1388 34.7253C13.1388 36.9098 14.9091 38.6785 17.092 38.6785H18.4092V43.9504C18.4092 45.4003 19.5953 46.5864 21.0451 46.5864C22.495 46.5864 23.6811 45.4003 23.6811 43.9504V38.6785H26.317V43.9504C26.317 45.4003 27.5031 46.5864 28.9529 46.5864C30.4028 46.5864 31.5889 45.4003 31.5889 43.9504V38.6785H32.9061C35.0906 38.6785 36.8592 36.9082 36.8592 34.7253V20.2281H13.1384V34.7253H13.1388ZM29.8852 8.0999L31.5536 4.89595C31.6378 4.73579 31.5762 4.53506 31.4144 4.45254C31.2542 4.36836 31.0535 4.42993 30.971 4.59175L29.2768 7.84424C27.9482 7.33125 26.5064 7.04971 24.9999 7.04971C23.4935 7.04971 22.0516 7.33125 20.7248 7.84585L19.0321 4.59009C18.9479 4.42993 18.7489 4.36675 18.5887 4.45088C18.4286 4.53506 18.3654 4.73413 18.4495 4.89428L20.1179 8.0999C16.3848 9.78926 13.6825 13.3557 13.2147 17.5937H36.7932C36.319 13.3541 33.6166 9.7893 29.8852 8.0999ZM19.728 15.55C18.673 15.55 17.8169 14.694 17.8169 13.6389C17.8169 12.5838 18.6729 11.7278 19.728 11.7278C20.7831 11.7278 21.6391 12.5838 21.6391 13.6389C21.6391 14.694 20.7831 15.55 19.728 15.55ZM30.272 15.55C29.2169 15.55 28.3609 14.694 28.3609 13.6389C28.3609 12.5838 29.2169 11.7278 30.272 11.7278C31.327 11.7278 32.1831 12.5838 32.1831 13.6389C32.1831 14.694 31.327 15.55 30.272 15.55Z" fill="white"/>
</svg>
