<svg width="50" height="51" viewBox="0 0 50 51" fill="none" xmlns="http://www.w3.org/2000/svg">
<path d="M36.4104 26.8355C36.452 23.5933 38.1864 20.5254 40.9379 18.8272C39.2021 16.3385 36.2947 14.7606 33.2699 14.6656C30.0437 14.3257 26.916 16.6037 25.272 16.6037C23.5961 16.6037 21.0649 14.6994 18.3392 14.7557C14.7863 14.8709 11.4742 16.8988 9.74565 20.017C6.02998 26.4752 8.80153 35.9667 12.3608 41.187C14.1416 43.7432 16.2229 46.5986 18.9461 46.4974C21.611 46.3864 22.6063 44.7915 25.823 44.7915C29.0099 44.7915 29.9437 46.4974 32.7222 46.433C35.5817 46.3864 37.3833 43.8654 39.1017 41.2849C40.3812 39.4635 41.3657 37.4504 42.0189 35.3203C38.6584 33.8934 36.4143 30.4984 36.4104 26.8355Z" fill="white"/>
<path d="M31.1622 11.2325C32.7213 9.35349 33.4894 6.93837 33.3034 4.5C30.9214 4.75116 28.7211 5.89405 27.1409 7.70095C25.5957 9.46638 24.7915 11.839 24.9436 14.1842C27.3264 14.2088 29.669 13.0969 31.1622 11.2325Z" fill="white"/>
</svg>
