<svg width="14" height="14" viewBox="0 0 14 14" fill="none" xmlns="http://www.w3.org/2000/svg">
<path d="M11.9229 9.34871H11.825C11.4252 9.34871 11.1016 9.03677 11.1016 8.65181V5.82942C11.1016 5.44282 11.4252 5.13087 11.825 5.13087H11.9229C12.3228 5.13087 12.6464 5.44281 12.6464 5.82942V8.65348C12.6464 9.03677 12.3212 9.34871 11.9229 9.34871ZM9.91523 10.3974H9.12542V11.9206C9.12542 12.3055 8.80019 12.6175 8.40032 12.6175H8.30241C7.90253 12.6175 7.57898 12.3055 7.57898 11.9206V10.3974H6.36108V11.9206C6.36108 12.3055 6.03585 12.6175 5.63597 12.6175H5.53807C5.13818 12.6175 4.81297 12.3055 4.81297 11.9206V10.3974H4.12273C3.72284 10.3974 3.3993 10.0854 3.3993 9.70047V5.41627C3.3993 5.34161 3.40261 5.26693 3.4076 5.19394H10.6304C10.6353 5.26695 10.6387 5.34161 10.6387 5.41627V9.69882C10.6387 10.0854 10.3151 10.3974 9.91522 10.3974H9.91523ZM5.23115 2.49432L4.62551 1.48216C4.61224 1.46059 4.62054 1.43073 4.64375 1.4158L4.67196 1.40087C4.69519 1.38759 4.72506 1.39589 4.73832 1.41911L5.34728 2.43788C5.79361 2.23212 6.29306 2.11764 6.82071 2.11764H7.21561C7.72167 2.11764 8.20287 2.22383 8.63427 2.41465L9.23161 1.41909C9.24488 1.39752 9.27474 1.38922 9.29797 1.40085L9.32618 1.41578C9.34941 1.42906 9.3577 1.45892 9.34442 1.48215L8.75206 2.46941C9.70946 2.93564 10.408 3.82171 10.5889 4.87698H3.44575C3.62164 3.84161 4.30193 2.96717 5.23112 2.49429L5.23115 2.49432ZM8.64756 3.7985C8.85663 3.7985 9.02753 3.67074 9.02753 3.5131C9.02753 3.35547 8.85828 3.2277 8.64756 3.2277C8.44016 3.2277 8.26926 3.35547 8.26926 3.5131C8.26926 3.67074 8.4385 3.7985 8.64756 3.7985ZM5.29088 3.83003C5.49829 3.83003 5.66918 3.7006 5.66918 3.54299C5.66918 3.38538 5.49994 3.25759 5.29088 3.25759C5.08181 3.25759 4.91258 3.38535 4.91258 3.54299C4.91258 3.70228 5.08183 3.83003 5.29088 3.83003ZM2.24614 9.34871H2.14824C1.75002 9.34871 1.4248 9.03677 1.4248 8.65181V5.82942C1.4248 5.44282 1.75003 5.13087 2.14824 5.13087H2.24614C2.64603 5.13087 2.97124 5.44281 2.97124 5.82942V8.65348C2.97124 9.03677 2.64769 9.34871 2.24614 9.34871Z" fill="#555555"/>
</svg>
