<svg width="20" height="20" viewBox="0 0 20 20" fill="none" xmlns="http://www.w3.org/2000/svg">
<rect width="20" height="20" rx="4" fill="#F3F0FB"/>
<path d="M8.625 5.25H13.875C14.1071 5.25 14.3296 5.34219 14.4937 5.50628C14.6578 5.67038 14.75 5.89294 14.75 6.125V11.375C14.75 11.6071 14.6578 11.8296 14.4937 11.9937C14.3296 12.1578 14.1071 12.25 13.875 12.25H8.625C8.39294 12.25 8.17038 12.1578 8.00628 11.9937C7.84219 11.8296 7.75 11.6071 7.75 11.375V6.125C7.75 5.89294 7.84219 5.67038 8.00628 5.50628C8.17038 5.34219 8.39294 5.25 8.625 5.25ZM8.625 6C8.59185 6 8.56005 6.01317 8.53661 6.03661C8.51317 6.06005 8.5 6.09185 8.5 6.125V11.375C8.5 11.3914 8.50323 11.4077 8.50952 11.4228C8.5158 11.438 8.525 11.4518 8.53661 11.4634C8.54822 11.475 8.562 11.4842 8.57717 11.4905C8.59233 11.4968 8.60859 11.5 8.625 11.5H13.875C13.9082 11.5 13.9399 11.4868 13.9634 11.4634C13.9868 11.4399 14 11.4082 14 11.375V6.125C14 6.09185 13.9868 6.06005 13.9634 6.03661C13.9399 6.01317 13.9082 6 13.875 6H8.625ZM11.5 13C11.5 12.9005 11.5395 12.8052 11.6098 12.7348C11.6802 12.6645 11.7755 12.625 11.875 12.625C11.9745 12.625 12.0698 12.6645 12.1402 12.7348C12.2105 12.8052 12.25 12.9005 12.25 13V13.875C12.25 14.1071 12.1578 14.3296 11.9937 14.4937C11.8296 14.6578 11.6071 14.75 11.375 14.75H6.125C5.89294 14.75 5.67038 14.6578 5.50628 14.4937C5.34219 14.3296 5.25 14.1071 5.25 13.875V8.625C5.25 8.39294 5.34219 8.17038 5.50628 8.00628C5.67038 7.84219 5.89294 7.75 6.125 7.75H7C7.09946 7.75 7.19484 7.78951 7.26517 7.85984C7.33549 7.93016 7.375 8.02554 7.375 8.125C7.375 8.22446 7.33549 8.31984 7.26517 8.39017C7.19484 8.46049 7.09946 8.5 7 8.5H6.125C6.09185 8.5 6.06005 8.51317 6.03661 8.53661C6.01317 8.56005 6 8.59185 6 8.625V13.875C6 13.9082 6.01317 13.9399 6.03661 13.9634C6.06005 13.9868 6.09185 14 6.125 14H11.375C11.4082 14 11.4399 13.9868 11.4634 13.9634C11.4868 13.9399 11.5 13.9082 11.5 13.875V13Z" fill="#6741FF"/>
</svg>
