<svg width="14" height="14" viewBox="0 0 14 14" fill="none" xmlns="http://www.w3.org/2000/svg">
<path d="M11.6091 9.63773C11.5949 9.6809 11.3726 10.4563 10.8264 11.2536C10.3536 11.9414 9.8648 12.6347 9.09275 12.6469C8.33351 12.6603 8.09056 12.1939 7.22371 12.1939C6.35795 12.1939 6.0858 12.6347 5.36826 12.6603C4.62649 12.6906 4.0557 11.909 3.58118 11.2246C2.61136 9.8225 1.86463 7.25151 2.86613 5.5285C3.35886 4.66642 4.24452 4.11843 5.20899 4.10346C5.9358 4.08972 6.62731 4.59581 7.06876 4.59581C7.52227 4.59581 8.3588 3.98344 9.24131 4.07505C9.6108 4.0908 10.6443 4.22953 11.3102 5.19467C11.2579 5.23031 10.0736 5.92918 10.0868 7.35154C10.1046 9.06869 11.5931 9.63188 11.6091 9.63773ZM8.66381 3.15526C9.06177 2.66983 9.32327 2.00253 9.25447 1.33984C8.68627 1.36213 7.99397 1.71719 7.58251 2.19976C7.21872 2.62078 6.89807 3.29846 6.98751 3.95345C7.61884 3.9918 8.26798 3.62284 8.66381 3.15526Z" fill="#555555"/>
</svg>
