<svg width="25" height="24" viewBox="0 0 25 24" fill="none" xmlns="http://www.w3.org/2000/svg">
<path d="M10.875 20.25C10.875 20.6642 10.5392 21 10.125 21C9.71079 21 9.375 20.6642 9.375 20.25C9.375 19.8358 9.71079 19.5 10.125 19.5C10.5392 19.5 10.875 19.8358 10.875 20.25Z" stroke="#6741FF" stroke-width="1.5" stroke-linecap="round" stroke-linejoin="round"/>
<path d="M19.375 20.25C19.375 20.6642 19.0392 21 18.625 21C18.2108 21 17.875 20.6642 17.875 20.25C17.875 19.8358 18.2108 19.5 18.625 19.5C19.0392 19.5 19.375 19.8358 19.375 20.25Z" stroke="#6741FF" stroke-width="1.5" stroke-linecap="round" stroke-linejoin="round"/>
<path d="M2.375 3H2.58164C3.90624 3 4.56854 3 5.0005 3.40221C5.43246 3.80441 5.47964 4.46503 5.57402 5.78626L5.82535 9.30496C5.9674 11.2936 6.03842 12.2879 6.33976 13.0961C7.00031 14.8677 8.45729 16.2244 10.2715 16.757C11.0991 17 12.1017 17 14.1067 17C16.2123 17 17.265 17 18.1167 16.7416C20.0343 16.1599 21.5349 14.6593 22.1166 12.7417C22.375 11.89 22.375 10.8433 22.375 8.75C22.375 8.05222 22.375 7.70333 22.2889 7.41943C22.095 6.78023 21.5948 6.28002 20.9556 6.08612C20.6717 6 20.3228 6 19.625 6H5.875" fill="#6741FF"/>
<path d="M2.375 3H2.58164C3.90624 3 4.56854 3 5.0005 3.40221C5.43246 3.80441 5.47964 4.46503 5.57402 5.78626L5.82535 9.30496C5.9674 11.2936 6.03842 12.2879 6.33976 13.0961C7.00031 14.8677 8.45729 16.2244 10.2715 16.757C11.0991 17 12.1017 17 14.1067 17C16.2123 17 17.265 17 18.1167 16.7416C20.0343 16.1599 21.5349 14.6593 22.1166 12.7417C22.375 11.89 22.375 10.8433 22.375 8.75C22.375 8.05222 22.375 7.70333 22.2889 7.41943C22.095 6.78023 21.5948 6.28002 20.9556 6.08612C20.6717 6 20.3228 6 19.625 6H5.875" stroke="#6741FF" stroke-width="1.5" stroke-linecap="round" stroke-linejoin="round"/>
<path d="M16.375 10V13M11.375 10V13" stroke="white" stroke-width="1.5" stroke-linecap="round" stroke-linejoin="round"/>
</svg>
