<svg width="25" height="24" viewBox="0 0 25 24" fill="none" xmlns="http://www.w3.org/2000/svg">
<path d="M22.875 12C22.875 17.5228 18.3978 22 12.875 22C7.35215 22 2.875 17.5228 2.875 12C2.875 6.47715 7.35215 2 12.875 2C18.3978 2 22.875 6.47715 22.875 12Z" fill="#6741FF" stroke="#6741FF" stroke-width="1.5"/>
<path d="M15.625 9.5C15.625 11.0188 14.3938 12.25 12.875 12.25C11.3562 12.25 10.125 11.0188 10.125 9.5C10.125 7.98122 11.3562 6.75 12.875 6.75C14.3938 6.75 15.625 7.98122 15.625 9.5Z" stroke="white" stroke-width="1.5"/>
<path d="M6.375 19L6.9354 18.0193C7.82561 16.4615 9.48233 15.5 11.2767 15.5H14.4734C16.2677 15.5 17.9244 16.4615 18.8146 18.0193L19.375 19" stroke="white" stroke-width="1.5" stroke-linecap="round" stroke-linejoin="round"/>
</svg>
