<svg width="25" height="24" viewBox="0 0 25 24" fill="none" xmlns="http://www.w3.org/2000/svg">
<path d="M22.625 12C22.625 6.47715 18.1478 2 12.625 2C7.10215 2 2.625 6.47715 2.625 12C2.625 17.5228 7.10215 22 12.625 22C18.1478 22 22.625 17.5228 22.625 12Z" fill="#6741FF" stroke="#6741FF" stroke-width="1.5" stroke-linejoin="round"/>
<path d="M12.625 17C12.625 17 7.625 13.8235 7.625 10.75C7.625 9.23122 8.67763 8 10.125 8C10.875 8 11.625 8.26471 12.625 9.32353C13.625 8.26471 14.375 8 15.125 8C16.5724 8 17.625 9.23122 17.625 10.75C17.625 13.8235 12.625 17 12.625 17Z" fill="white"/>
</svg>
