<svg width="32" height="32" viewBox="0 0 32 32" fill="none" xmlns="http://www.w3.org/2000/svg">
<path d="M32 16C32 24.8366 24.8366 32 16 32C7.16344 32 0 24.8366 0 16C0 7.16344 7.16344 0 16 0C24.8366 0 32 7.16344 32 16Z" fill="#33394D"/>
<path d="M17.9387 31.8844C25.8613 30.9253 32 24.1796 32 16C32 7.16356 24.8364 0 16 0C7.16356 0 0 7.16356 0 16C0 23.504 5.16533 29.8009 12.1351 31.5298L12.4444 30.2222H17.3333L17.9387 31.8844Z" fill="#0866FF"/>
<path d="M12.1343 31.5297V20.8897H8.83203V16H12.1343V13.8933C12.1343 8.44707 14.5983 5.92529 19.9423 5.92529C20.9538 5.92529 22.7005 6.12352 23.4178 6.32174V10.7511C23.04 10.7128 22.3805 10.6933 21.568 10.6933C18.944 10.6933 17.9325 11.6853 17.9325 14.2711V16H23.1618L22.2658 20.8888H17.9396V31.8844C15.9992 32.1181 14.0326 31.9979 12.1351 31.5297H12.1343Z" fill="white"/>
</svg>
