<svg width="32" height="32" viewBox="0 0 32 32" fill="none" xmlns="http://www.w3.org/2000/svg">
<path d="M32 16C32 24.8366 24.8366 32 16 32C7.16344 32 0 24.8366 0 16C0 7.16344 7.16344 0 16 0C24.8366 0 32 7.16344 32 16Z" fill="white"/>
<g clip-path="url(#clip0_283_7075)">
<path fill-rule="evenodd" clip-rule="evenodd" d="M24.9213 16.2047C24.9213 15.5665 24.864 14.9529 24.7576 14.3638H16.2812V17.8451H21.1249C20.9163 18.9701 20.2822 19.9233 19.329 20.5615V22.8197H22.2376C23.9394 21.2529 24.9213 18.9456 24.9213 16.2047Z" fill="#4285F4"/>
<path fill-rule="evenodd" clip-rule="evenodd" d="M16.2813 25C18.7113 25 20.7485 24.1941 22.2376 22.8195L19.329 20.5613C18.5231 21.1013 17.4922 21.4204 16.2813 21.4204C13.9372 21.4204 11.9531 19.8372 11.2453 17.71H8.23853V20.0418C9.71944 22.9831 12.7631 25 16.2813 25Z" fill="#34A853"/>
<path fill-rule="evenodd" clip-rule="evenodd" d="M11.2453 17.7098C11.0653 17.1698 10.9631 16.593 10.9631 15.9998C10.9631 15.4066 11.0653 14.8298 11.2453 14.2898V11.958H8.23852C7.62898 13.173 7.28125 14.5476 7.28125 15.9998C7.28125 17.4521 7.62898 18.8266 8.23852 20.0416L11.2453 17.7098Z" fill="#FBBC05"/>
<path fill-rule="evenodd" clip-rule="evenodd" d="M16.2813 10.5795C17.6026 10.5795 18.789 11.0336 19.7217 11.9255L22.3031 9.34409C20.7444 7.89182 18.7072 7 16.2813 7C12.7631 7 9.71944 9.01682 8.23853 11.9582L11.2453 14.29C11.9531 12.1627 13.9372 10.5795 16.2813 10.5795Z" fill="#EA4335"/>
</g>
<defs>
<clipPath id="clip0_283_7075">
<rect width="18" height="18" fill="white" transform="translate(7 7)"/>
</clipPath>
</defs>
</svg>
