<svg width="21" height="20" viewBox="0 0 21 20" fill="none" xmlns="http://www.w3.org/2000/svg">
<path d="M6.75008 12.5007C7.90067 12.5007 8.83341 11.5679 8.83341 10.4173C8.83341 9.26672 7.90067 8.33398 6.75008 8.33398C5.59949 8.33398 4.66675 9.26672 4.66675 10.4173C4.66675 11.5679 5.59949 12.5007 6.75008 12.5007Z" stroke="white" stroke-width="1.5"/>
<path d="M11.75 12.5007C12.4404 12.5007 13 11.5679 13 10.4173C13 9.26672 12.4404 8.33398 11.75 8.33398C11.0596 8.33398 10.5 9.26672 10.5 10.4173C10.5 11.5679 11.0596 12.5007 11.75 12.5007Z" stroke="white" stroke-width="1.5"/>
<path d="M15.5001 12.5007C15.9603 12.5007 16.3334 11.5679 16.3334 10.4173C16.3334 9.26672 15.9603 8.33398 15.5001 8.33398C15.0398 8.33398 14.6667 9.26672 14.6667 10.4173C14.6667 11.5679 15.0398 12.5007 15.5001 12.5007Z" stroke="white" stroke-width="1.5"/>
<path d="M2.58325 10.0007C2.58325 6.2687 2.58325 4.40273 3.74262 3.24335C4.90199 2.08398 6.76797 2.08398 10.4999 2.08398C14.2318 2.08398 16.0978 2.08398 17.2573 3.24335C18.4166 4.40273 18.4166 6.2687 18.4166 10.0007C18.4166 13.7326 18.4166 15.5986 17.2573 16.758C16.0978 17.9173 14.2318 17.9173 10.4999 17.9173C6.76797 17.9173 4.90199 17.9173 3.74262 16.758C2.58325 15.5986 2.58325 13.7326 2.58325 10.0007Z" stroke="white" stroke-width="1.5" stroke-linejoin="round"/>
</svg>
