<svg width="20" height="20" viewBox="0 0 20 20" fill="none" xmlns="http://www.w3.org/2000/svg">
<g clip-path="url(#clip0_1246_13581)">
<path d="M9.99821 1.62793C6.36321 1.62793 3.33154 2.92793 3.33154 4.96126C3.33154 6.99543 6.36321 8.2946 9.99821 8.2946C13.6332 8.2946 16.6649 6.99543 16.6649 4.96126C16.6649 2.92793 13.6332 1.62793 9.99821 1.62793ZM3.33154 7.9821V9.96126C3.33154 11.9954 6.36321 13.2946 9.99821 13.2946C13.6332 13.2946 16.6649 11.9954 16.6649 9.96126V7.9821C15.1532 9.22376 12.7965 9.96126 9.99821 9.96126C7.19988 9.96126 4.84321 9.22376 3.33154 7.9821ZM3.33154 12.9821V14.9613C3.33154 16.9954 6.36321 18.2946 9.99821 18.2946C13.6332 18.2946 16.6649 16.9954 16.6649 14.9613V12.9821C15.1532 14.2238 12.7965 14.9613 9.99821 14.9613C7.19988 14.9613 4.84321 14.2238 3.33154 12.9821Z" fill="white"/>
</g>
<defs>
<clipPath id="clip0_1246_13581">
<rect width="20" height="20" fill="white"/>
</clipPath>
</defs>
</svg>
