<svg width="25" height="24" viewBox="0 0 25 24" fill="none" xmlns="http://www.w3.org/2000/svg">
<path d="M2.5 7H5.36503C6.09174 7 6.78868 6.64031 7.30255 6.00005C8.03643 5.08565 9.12195 4.76636 10.1066 5.17529L11.5 5.75402M2.5 15.9668H4.12068C5.28017 15.9668 5.85991 15.9668 6.40812 16.1213C6.43477 16.1288 6.46134 16.1366 6.48782 16.1446C7.03259 16.3101 7.51496 16.6209 8.47971 17.2427C10.3679 18.4596 11.312 19.0681 12.3407 18.994C12.3892 18.9905 12.4376 18.9858 12.4859 18.9801C13.5096 18.8577 14.3119 18.0821 15.9166 16.5308L17.5 15" stroke="white" stroke-opacity="0.8" stroke-width="1.5" stroke-linecap="round"/>
<path d="M22.5 7.23384H19.9832C18.9174 7.23384 18.1649 6.65468 17.4003 5.88258C16.9051 5.38247 16.2731 5.08772 15.6088 5.04713C14.866 5.00175 14.0053 4.93785 13.284 5.13601C12.4811 5.35656 11.951 5.96063 11.3902 6.59196L9.94309 8.22111C9.3523 8.88621 9.3523 9.96455 9.94309 10.6297C10.453 11.2037 11.2519 11.2928 11.8519 10.8424C12.2837 10.5184 12.7743 9.99506 13.2831 9.83025C13.8557 9.64476 14.2109 10.0615 14.5354 10.4999L16.8556 13.6344C17.7167 14.7976 18.1472 15.3793 18.7358 15.6896C19.3244 16 19.9969 16 21.342 16H22.5" stroke="white" stroke-opacity="0.8" stroke-width="1.5" stroke-linecap="round"/>
</svg>
