<svg width="21" height="20" viewBox="0 0 21 20" fill="none" xmlns="http://www.w3.org/2000/svg">
<path d="M10.5001 18.3327C15.1025 18.3327 18.8334 14.6017 18.8334 9.99935C18.8334 5.39698 15.1025 1.66602 10.5001 1.66602M10.5001 18.3327C5.89771 18.3327 2.16675 14.6017 2.16675 9.99935C2.16675 5.39698 5.89771 1.66602 10.5001 1.66602M10.5001 18.3327C12.7728 18.3327 13.5304 14.5448 13.5304 9.99935C13.5304 5.45389 12.7728 1.66602 10.5001 1.66602M10.5001 18.3327C8.22735 18.3327 7.46978 14.5448 7.46978 9.99935C7.46978 5.45389 8.22735 1.66602 10.5001 1.66602M2.92432 13.0297H18.0758M2.92432 6.96905H18.0758" stroke="white" stroke-width="1.5"/>
</svg>
