<svg width="21" height="20" viewBox="0 0 21 20" fill="none" xmlns="http://www.w3.org/2000/svg">
<path d="M10.4999 7.49935C9.57942 7.49935 8.83325 8.05899 8.83325 8.74935C8.83325 9.43968 9.57942 9.99935 10.4999 9.99935C11.4204 9.99935 12.1666 10.559 12.1666 11.2493C12.1666 11.9397 11.4204 12.4993 10.4999 12.4993M10.4999 7.49935C11.2256 7.49935 11.8429 7.84718 12.0718 8.33268M10.4999 7.49935V6.66602M10.4999 12.4993C9.77425 12.4993 9.15692 12.1515 8.92809 11.666M10.4999 12.4993V13.3327" stroke="white" stroke-opacity="0.8" stroke-width="1.5" stroke-linecap="round"/>
<path d="M18 9.31877V6.89959C18 5.53292 18 4.84958 17.6632 4.40376C17.3265 3.95792 16.5651 3.74148 15.0423 3.3086C14.0018 3.01285 13.0847 2.65654 12.3519 2.33126C11.3528 1.88777 10.8533 1.66602 10.5 1.66602C10.1467 1.66602 9.64717 1.88777 8.64809 2.33126C7.91532 2.65654 6.9982 3.01284 5.95778 3.3086C4.43494 3.74148 3.67352 3.95792 3.33676 4.40376C3 4.84958 3 5.53292 3 6.89959V9.31877C3 14.0064 7.21897 16.8189 9.32833 17.9322C9.83425 18.1992 10.0872 18.3327 10.5 18.3327C10.9128 18.3327 11.1657 18.1992 11.6717 17.9322C13.781 16.8189 18 14.0064 18 9.31877Z" stroke="white" stroke-opacity="0.8" stroke-width="1.5" stroke-linecap="round"/>
</svg>
