<svg width="21" height="20" viewBox="0 0 21 20" fill="none" xmlns="http://www.w3.org/2000/svg">
<path d="M10.5001 18.3327C15.1024 18.3327 18.8334 14.6017 18.8334 9.99935C18.8334 5.39697 15.1024 1.66602 10.5001 1.66602C5.89771 1.66602 2.16675 5.39697 2.16675 9.99935C2.16675 11.1484 2.39931 12.2432 2.81993 13.2391C3.0524 13.7894 3.16863 14.0647 3.18302 14.2727C3.19741 14.4807 3.1362 14.7094 3.01376 15.167L2.16675 18.3327L5.33239 17.4857C5.78998 17.3633 6.01878 17.302 6.22676 17.3164C6.43476 17.3308 6.70996 17.447 7.26037 17.6795C8.25629 18.1001 9.351 18.3327 10.5001 18.3327Z" stroke="white" stroke-opacity="0.8" stroke-width="1.5" stroke-linejoin="round"/>
<path d="M7.65671 10.3151L8.38249 9.41365C8.68839 9.03373 9.0665 8.68007 9.09617 8.1742C9.10359 8.04643 9.01375 7.47279 8.83392 6.32553C8.76326 5.87466 8.3423 5.83398 7.97769 5.83398C7.50254 5.83398 7.26496 5.83398 7.02904 5.94174C6.73087 6.07794 6.42474 6.46091 6.35756 6.78176C6.30441 7.03562 6.34391 7.21054 6.42291 7.56039C6.75844 9.04632 7.54559 10.5138 8.76615 11.7344C9.98675 12.955 11.4543 13.7422 12.9402 14.0777C13.29 14.1567 13.4649 14.1962 13.7188 14.143C14.0397 14.0758 14.4226 13.7697 14.5588 13.4715C14.6666 13.2356 14.6666 12.9981 14.6666 12.5229C14.6666 12.1582 14.6259 11.7373 14.175 11.6667C13.0278 11.4868 12.4542 11.397 12.3263 11.4044C11.8205 11.4341 11.4668 11.8122 11.0869 12.1181L10.1855 12.8438" stroke="white" stroke-opacity="0.8" stroke-width="1.5"/>
</svg>
