<svg width="20" height="21" viewBox="0 0 20 21" fill="none" xmlns="http://www.w3.org/2000/svg">
<path d="M18.3334 9.66667C18.3334 6.71877 18.3334 5.24481 17.4561 4.26075C17.3157 4.10336 17.1611 3.95779 16.9938 3.82572C15.9483 3 14.3822 3 11.2501 3H8.75008C5.61793 3 4.05186 3 3.0063 3.82572C2.83906 3.95779 2.68441 4.10336 2.54408 4.26075C1.66675 5.24481 1.66675 6.71877 1.66675 9.66667C1.66675 12.6146 1.66675 14.0885 2.54408 15.0726C2.68441 15.23 2.83906 15.3755 3.0063 15.5076C4.05186 16.3333 5.61793 16.3333 8.75008 16.3333H10.0001" stroke="#6E6E70" stroke-width="1.5" stroke-linecap="round" stroke-linejoin="round"/>
<path d="M1.66675 7.16699H18.3334" stroke="#6E6E70" stroke-width="1.5" stroke-linejoin="round"/>
<path d="M13.4375 16.75V11.75M15 11.75V10.5M15 18V16.75M13.4375 14.25H16.5625M16.5625 14.25C17.0802 14.25 17.5 14.6697 17.5 15.1875V15.8125C17.5 16.3302 17.0802 16.75 16.5625 16.75H12.5M16.5625 14.25C17.0802 14.25 17.5 13.8302 17.5 13.3125V12.6875C17.5 12.1697 17.0802 11.75 16.5625 11.75H12.5" stroke="#6E6E70" stroke-width="1.5" stroke-linecap="round" stroke-linejoin="round"/>
</svg>
