<svg viewBox="0 0 20 21" fill="none" xmlns="http://www.w3.org/2000/svg">
  <path
    d="M13.4375 17.583V12.583M15 12.583V11.333M15 18.833V17.583M13.4375 15.083H16.5625M16.5625 15.083C17.0802 15.083 17.5 15.5028 17.5 16.0205V16.6455C17.5 17.1633 17.0802 17.583 16.5625 17.583H12.5M16.5625 15.083C17.0802 15.083 17.5 14.6633 17.5 14.1455V13.5205C17.5 13.0028 17.0802 12.583 16.5625 12.583H12.5"
    stroke="currentColor" stroke-width="1.5" stroke-linecap="round" stroke-linejoin="round" />
  <path
    d="M9.16675 4.66699C11.5237 4.66699 13.5356 4.66699 14.2678 5.33266C15.0001 5.99833 15.0001 6.69091 15.0001 8.83366L13.3334 8.00033"
    stroke="currentColor" stroke-width="1.5" stroke-linecap="round" stroke-linejoin="round" />
  <path
    d="M10.0001 17.1667C7.64306 17.1667 5.63121 17.1667 4.89898 16.501C4.16675 15.8353 4.16675 15.1427 4.16675 13L5.83341 13.8333"
    stroke="currentColor" stroke-width="1.5" stroke-linecap="round" stroke-linejoin="round" />
  <path
    d="M4.58333 3.20866C3.43274 3.20866 2.5 3.90822 2.5 4.77116C2.5 5.6341 3.43274 6.33366 4.58333 6.33366C5.73392 6.33366 6.66667 7.03322 6.66667 7.89616C6.66667 8.7591 5.73392 9.45866 4.58333 9.45866M4.58333 3.20866C5.49043 3.20866 6.26212 3.64345 6.54812 4.25033M4.58333 3.20866V2.16699M4.58333 9.45866C3.67623 9.45866 2.90454 9.02383 2.61854 8.41699M4.58333 9.45866V10.5003"
    stroke="currentColor" stroke-width="1.5" stroke-linecap="round" />
</svg>