<svg viewBox="0 0 20 21" fill="none" xmlns="http://www.w3.org/2000/svg">
  <path
    d="M11.6667 3H4.16667C3.24619 3 2.5 3.74619 2.5 4.66667C2.5 5.58714 3.24619 6.33333 4.16667 6.33333H15C15 5.55836 15 5.17087 14.9148 4.85295C14.6837 3.99022 14.0097 3.31635 13.1471 3.08518C12.8292 3 12.4417 3 11.6667 3Z"
    stroke="currentColor" stroke-width="1.5" stroke-linecap="round" stroke-linejoin="round" />
  <path
    d="M2.5 4.66699V13.0003C2.5 15.3573 2.5 16.5358 3.23223 17.2681C3.96447 18.0003 5.14297 18.0003 7.5 18.0003H12.5C14.857 18.0003 16.0355 18.0003 16.7677 17.2681C17.5 16.5358 17.5 15.3573 17.5 13.0003V11.3337C17.5 8.97666 17.5 7.79813 16.7677 7.06589C16.0355 6.33366 14.857 6.33366 12.5 6.33366H5.83333"
    stroke="currentColor" stroke-width="1.5" stroke-linecap="round" stroke-linejoin="round" />
  <path
    d="M17.5001 10.5H15.8334C15.4459 10.5 15.2522 10.5 15.0932 10.5426C14.6618 10.6582 14.3249 10.9951 14.2093 11.4265C14.1667 11.5854 14.1667 11.7792 14.1667 12.1667C14.1667 12.5542 14.1667 12.7479 14.2093 12.9068C14.3249 13.3382 14.6618 13.6752 15.0932 13.7907C15.2522 13.8333 15.4459 13.8333 15.8334 13.8333H17.5001"
    stroke="currentColor" stroke-width="1.5" stroke-linecap="round" stroke-linejoin="round" />
</svg>