<svg viewBox="0 0 20 21" fill="none" xmlns="http://www.w3.org/2000/svg">
  <path
    d="M16.4543 11.3337C17.1134 10.3888 17.4999 9.23966 17.4999 8.00033C17.4999 4.77867 14.8883 2.16699 11.6666 2.16699C8.44492 2.16699 5.83325 4.77866 5.83325 8.00033C5.83325 8.89499 6.03466 9.74258 6.39461 10.5003"
    stroke="currentColor" stroke-width="1.5" stroke-linecap="round" stroke-linejoin="round" />
  <path
    d="M10.3645 10.2226V5.7781M11.6666 5.7781V4.66699M11.6666 11.3337V10.2226M10.3645 8.00033H12.9687M12.9687 8.00033C13.4002 8.00033 13.7499 8.37343 13.7499 8.83366V9.38924C13.7499 9.84949 13.4002 10.2226 12.9687 10.2226H9.58325M12.9687 8.00033C13.4002 8.00033 13.7499 7.62723 13.7499 7.16699V6.61143C13.7499 6.1512 13.4002 5.7781 12.9687 5.7781H9.58325"
    stroke="currentColor" stroke-width="1.5" stroke-linecap="round" stroke-linejoin="round" />
  <path
    d="M2.5 12.167H4.49568C4.74081 12.167 4.98257 12.2222 5.20181 12.3283L6.90346 13.1517C7.1227 13.2577 7.36446 13.3129 7.60958 13.3129H8.47842C9.31875 13.3129 10 13.9722 10 14.7853C10 14.8182 9.9775 14.8471 9.94483 14.8561L7.82739 15.4416C7.44756 15.5466 7.04083 15.51 6.6875 15.339L4.86843 14.4589M10 14.2503L13.8273 13.0744C14.5058 12.863 15.2392 13.1137 15.6642 13.7022C15.9716 14.1277 15.8464 14.7372 15.3987 14.9955L9.13575 18.6091C8.73742 18.8389 8.26745 18.895 7.8293 18.765L2.5 17.1836"
    stroke="currentColor" />
</svg>