<svg width="16" height="17" viewBox="0 0 16 17" fill="none" xmlns="http://www.w3.org/2000/svg">
<path d="M6 10.5C6 8.6144 6 7.6716 6.58579 7.08579C7.1716 6.5 8.1144 6.5 10 6.5H10.6667C12.5523 6.5 13.4951 6.5 14.0809 7.08579C14.6667 7.6716 14.6667 8.6144 14.6667 10.5V11.1667C14.6667 13.0523 14.6667 13.9951 14.0809 14.5809C13.4951 15.1667 12.5523 15.1667 10.6667 15.1667H10C8.1144 15.1667 7.1716 15.1667 6.58579 14.5809C6 13.9951 6 13.0523 6 11.1667V10.5Z" fill="white" fill-opacity="0.8" stroke="white" stroke-opacity="0.8" stroke-width="1.5" stroke-linecap="round" stroke-linejoin="round"/>
<path d="M11.3334 6.49967C11.3318 4.52828 11.302 3.50715 10.7282 2.80796C10.6174 2.67293 10.4936 2.54913 10.3586 2.43831C9.62096 1.83301 8.52516 1.83301 6.3335 1.83301C4.14184 1.83301 3.04602 1.83301 2.30845 2.43831C2.17342 2.54912 2.04962 2.67293 1.9388 2.80796C1.3335 3.54553 1.3335 4.64135 1.3335 6.83301C1.3335 9.02467 1.3335 10.1205 1.9388 10.8581C2.04961 10.9931 2.17342 11.1169 2.30845 11.2277C3.00764 11.8015 4.02877 11.8313 6.00016 11.8329" stroke="white" stroke-opacity="0.8" stroke-width="1.5" stroke-linecap="round" stroke-linejoin="round"/>
</svg>
