<svg width="16" height="16" viewBox="0 0 16 16" fill="none" xmlns="http://www.w3.org/2000/svg">
  <path
    d="M2.33325 12.6565V13.6663H3.34307C4.16057 13.6663 4.56932 13.6663 4.93686 13.5141C5.30441 13.3619 5.59343 13.0728 6.17149 12.4947L12.7475 5.9188C13.3359 5.33042 13.63 5.03623 13.6625 4.67518C13.6679 4.61549 13.6679 4.55544 13.6625 4.49575C13.63 4.1347 13.3359 3.8405 12.7475 3.25213C12.1591 2.66376 11.8649 2.36956 11.5039 2.33704C11.4441 2.33166 11.3841 2.33166 11.3244 2.33704C10.9633 2.36956 10.6692 2.66376 10.0808 3.25213L3.50483 9.82808C2.92677 10.4061 2.63774 10.6952 2.48549 11.0627C2.33325 11.4303 2.33325 11.839 2.33325 12.6565Z"
    fill="currentColor" stroke="currentColor" stroke-width="1.5" stroke-linecap="round" stroke-linejoin="round" />
  <path d="M8.63354 3.9668L12.0194 7.3527" stroke="#0E0E10" stroke-width="1.5" stroke-linejoin="round" />
</svg>