<svg width="96" height="96" viewBox="0 0 96 96" fill="none" xmlns="http://www.w3.org/2000/svg">
<path d="M84.8439 58.6592C84.722 61.8936 83.0908 64.8373 79.997 67.4248C77.5408 69.4873 74.5408 71.0436 71.897 72.4217C70.6689 73.0592 69.5064 73.6686 68.597 74.2217C66.272 75.6561 53.1845 82.8748 47.0064 82.8748H46.1251C45.3751 82.8748 44.6814 82.7998 44.0439 82.6967C44.6345 81.2248 45.5533 78.8154 45.9845 77.0529C46.0033 76.9967 46.0126 76.9311 46.022 76.8748C46.4345 75.1404 46.6033 73.5279 46.5376 72.0936C46.5189 71.5967 46.4626 71.1373 46.3876 70.6967C46.2001 69.5436 45.8533 68.5779 45.4408 67.7717C44.9158 66.7498 44.2783 65.9904 43.7064 65.4373C42.7126 64.4998 41.6158 63.7498 40.4251 63.2061C39.9095 60.1498 38.1845 57.6373 35.4751 56.1186C35.1751 55.9498 34.8658 55.7904 34.5658 55.6592C34.0501 51.2717 31.9501 49.0123 30.1595 47.8592C28.3033 46.6686 26.2033 46.2092 24.0564 46.4623C23.8126 46.1342 23.5501 45.8248 23.2783 45.5248C21.5439 43.6967 19.1908 42.6842 16.6689 42.6842C13.7064 42.6842 10.7533 43.8279 8.09076 46.0029C8.03451 46.0498 7.96889 46.1061 7.91264 46.1529C6.68451 47.1842 4.81889 49.0967 3.77826 50.2029L2.36264 48.4967C-0.693613 45.0561 -0.759238 39.8529 2.21264 36.3373L15.3751 19.6311L15.4126 19.5842C17.1845 17.5217 19.7533 16.3311 22.472 16.3311C23.7658 16.3311 25.022 16.5936 26.2033 17.1186C27.1126 17.5217 27.8064 17.8404 28.4251 18.1123C30.1033 18.8811 30.947 19.2654 33.4314 20.0717C34.0689 20.2779 34.6595 20.4467 35.2126 20.5779C34.6876 20.9436 34.0876 21.3279 33.5158 21.5904C32.9908 21.8342 32.3439 22.0498 31.6595 22.2842C30.3658 22.7248 28.7908 23.2592 27.3845 24.2342C26.3158 24.9748 25.3314 25.9686 24.6376 27.3654C23.897 28.8373 23.597 30.6654 23.7845 32.5123C23.9908 34.5279 24.7501 36.4311 25.997 38.0248C27.1876 39.5529 29.4189 41.5311 33.3095 42.3373C36.2439 42.9467 39.6376 42.8061 43.6876 41.9061C50.7658 40.3311 53.7564 40.8467 54.4876 41.0342L77.3251 58.7811C77.7376 59.0998 78.1783 59.3623 78.6376 59.5592C79.397 59.8873 80.2033 60.0467 81.0095 60.0467C82.3783 60.0467 83.747 59.5779 84.8439 58.6592Z" fill="url(#paint0_linear_290_13264)"/>
<path d="M43.0871 76.1623C43.0777 76.2092 43.0684 76.2467 43.059 76.2936C42.4777 78.7029 41.5402 80.7467 41.5027 80.8311C41.334 81.1873 41.109 81.4967 40.8371 81.7498C40.4902 81.9748 40.1434 82.1904 39.7965 82.3873C38.4371 83.2029 37.0309 83.8123 35.6246 83.8123C32.2684 83.8123 29.6059 82.4529 27.7121 79.7623C25.6215 79.5467 23.9152 78.9186 22.5184 77.8404C21.2527 76.8654 20.3809 75.6373 19.7059 74.4936C15.1871 74.1748 13.7902 72.4967 12.3371 70.1904C12.0465 69.7311 11.7465 69.2529 11.3621 68.7561C11.1746 68.6436 10.7996 68.4561 10.5277 68.3154C9.48711 67.7904 8.06211 67.0779 6.84336 65.8967C5.22148 64.3217 4.39648 62.3717 4.39648 60.0842V59.2029C4.39648 57.8811 4.76211 56.5873 5.25898 55.4061C5.57773 54.6373 5.95273 53.9248 6.31836 53.2686L6.25273 53.1936C7.31211 51.8811 8.77461 50.2123 10.3965 48.7873C12.3746 47.0436 14.5965 45.6561 16.6402 45.6561C19.284 45.6561 21.3934 47.1748 22.5559 49.8748C24.6746 49.0592 26.7465 49.2186 28.5184 50.3529C30.5715 51.6748 31.6309 54.1123 31.6684 57.5998V57.8154C32.3996 57.9654 33.1871 58.2467 33.9934 58.6967C36.3746 60.0373 37.6402 62.3904 37.5746 65.3529C38.9152 65.6717 40.3309 66.3467 41.6246 67.5748C43.5277 69.3654 44.0152 72.2623 43.0871 76.1623ZM93.2715 50.2029C91.809 51.6186 89.5684 53.6717 87.4496 55.3873C87.4402 55.3967 87.4309 55.4061 87.4215 55.4061C84.5902 57.6842 80.5496 57.7123 77.6902 55.4623L56.0059 38.3529C55.9871 38.3436 55.9777 38.3342 55.9684 38.3154C55.6215 38.1373 52.5371 36.7967 43.0309 38.9061C39.459 39.7029 36.3934 39.8436 33.909 39.3279C30.9184 38.7092 29.2402 37.2373 28.359 36.1123C26.4465 33.6654 26.3902 30.5061 27.3184 28.6498C28.134 27.0279 29.6152 26.1936 31.1527 25.5936C31.6402 25.4061 32.1371 25.2373 32.6246 25.0686C33.3465 24.8248 34.0965 24.5717 34.7621 24.2717C36.009 23.6998 38.109 21.8061 39.3934 20.5873C40.0777 20.3623 40.7246 20.0154 41.5215 19.5748L41.5777 19.5467C43.734 18.3654 46.4246 16.8936 51.4402 16.8936H53.0152C56.3059 16.8936 59.4559 19.2373 62.4934 21.5154C63.684 22.4061 64.9871 23.3717 66.009 23.9529L68.3809 22.2561L68.4652 22.1998C69.8996 21.3186 71.5402 20.8498 73.209 20.8498C76.059 20.8498 78.8059 22.1717 80.7277 24.4779C81.8996 25.8842 83.8684 27.7029 85.9402 29.6342C89.5309 32.9717 93.2434 36.4217 94.9121 39.4967C96.8246 43.0123 96.1496 47.4186 93.2715 50.2029Z" fill="url(#paint1_linear_290_13264)"/>
<defs>
<linearGradient id="paint0_linear_290_13264" x1="42.4351" y1="16.3311" x2="42.4351" y2="82.8748" gradientUnits="userSpaceOnUse">
<stop stop-color="#67E8F2"/>
<stop offset="1" stop-color="#6741FF"/>
</linearGradient>
<linearGradient id="paint1_linear_290_13264" x1="50.1945" y1="16.8936" x2="50.1945" y2="83.8123" gradientUnits="userSpaceOnUse">
<stop stop-color="#67E8F2"/>
<stop offset="1" stop-color="#6741FF"/>
</linearGradient>
</defs>
</svg>
