<svg width="36" height="36" viewBox="0 0 36 36" fill="none" xmlns="http://www.w3.org/2000/svg">
<path d="M20.9166 23C20.9166 24.6108 19.6108 25.9167 17.9999 25.9167C16.3891 25.9167 15.0833 24.6108 15.0833 23" stroke="currentColor" stroke-width="1.5" stroke-linecap="round" stroke-linejoin="round"/>
<path d="M24.0259 22.9997H11.9741C11.16 22.9997 10.5 22.3397 10.5 21.5256C10.5 21.1347 10.6553 20.7598 10.9317 20.4833L11.4344 19.9806C11.9033 19.5118 12.1667 18.8758 12.1667 18.2128V15.9163C12.1667 12.6947 14.7783 10.083 18 10.083C21.2217 10.083 23.8333 12.6947 23.8333 15.9163V18.2128C23.8333 18.8758 24.0967 19.5118 24.5656 19.9806L25.0682 20.4833C25.3447 20.7598 25.5 21.1347 25.5 21.5256C25.5 22.3397 24.84 22.9997 24.0259 22.9997Z" stroke="currentColor" stroke-width="1.5" stroke-linecap="round" stroke-linejoin="round"/>
</svg>
