<svg width="167" height="97" viewBox="0 0 167 97" fill="none" xmlns="http://www.w3.org/2000/svg">
<g clip-path="url(#clip0_384_8827)">
<path d="M153.824 38.5798L160.158 36.2354C161.318 35.8064 161.426 34.0785 160.341 33.4762L154.383 30.173L154.286 22.8735C154.269 21.5415 152.788 20.8909 151.933 21.8354L147.211 26.9945L140.826 24.8518C139.67 24.4589 138.64 25.7932 139.192 26.9683L142.21 33.4495L138.354 39.4023C137.647 40.4823 138.488 41.9611 139.695 41.7517L146.31 40.6081L150.314 46.4418C151.044 47.5043 152.587 47.0927 152.777 45.7732L153.824 38.5798Z" fill="#6741FF"/>
<path d="M157.095 83.6004L161.227 86.778C161.984 87.3603 163.001 86.6637 162.856 85.6727L162.058 80.2333L166.109 76.9213C166.848 76.3173 166.555 75.0414 165.644 74.8916L160.651 74.0406L159.012 68.8328C158.718 67.8873 157.511 67.7945 157.098 68.6857L154.806 73.5799L149.752 73.6585C148.831 73.6675 148.376 74.8858 149.03 75.597L152.614 79.4959L151.124 84.7593C150.853 85.7184 151.77 86.5637 152.595 86.103L157.095 83.6004Z" fill="#6741FF" fill-opacity="0.6"/>
<path d="M97.1967 20.1356L102.718 18.0922C103.729 17.7183 103.823 16.2121 102.877 15.6871L97.6843 12.8079L97.5997 6.44536C97.5847 5.28426 96.2943 4.71718 95.5487 5.54046L91.4332 10.0374L85.8677 8.16965C84.8595 7.82719 83.9616 8.99026 84.4436 10.0145L87.0741 15.6638L83.7128 20.8526C83.0961 21.7939 83.8293 23.0829 84.8814 22.9005L90.6471 21.9036L94.1375 26.9886C94.7738 27.9147 96.1191 27.5559 96.2842 26.4058L97.1967 20.1356Z" fill="#6741FF"/>
<path opacity="0.9" d="M47.0587 44.8746C47.1421 45.0483 47.2728 45.1894 47.4329 45.2786C47.593 45.3679 47.7745 45.4007 47.9525 45.3727C48.134 45.3417 48.3027 45.2524 48.4369 45.115L49.292 44.1914C49.5081 43.9607 49.7706 43.7881 50.0586 43.6873C50.3465 43.5864 50.6521 43.56 50.9511 43.6102L52.1539 43.8249C52.3348 43.8502 52.5184 43.813 52.6789 43.7186C52.8393 43.6242 52.9686 43.4773 53.0483 43.2985C53.1281 43.1198 53.1545 42.9183 53.1237 42.7224C53.0928 42.5265 53.0064 42.3461 52.8765 42.2066L52.028 41.2729C51.8161 41.0374 51.6576 40.7513 51.5649 40.4373C51.4722 40.1233 51.448 39.7901 51.4941 39.4641L51.6884 38.1546C51.7124 37.9591 51.68 37.7603 51.5955 37.5858C51.511 37.4114 51.3788 37.2699 51.2172 37.1812C51.0556 37.0925 50.8726 37.0609 50.6937 37.0908C50.5149 37.1207 50.349 37.2106 50.2192 37.3481L49.3464 38.2894C49.1338 38.5125 48.8774 38.6801 48.5967 38.7794C48.3159 38.8786 48.0181 38.9071 47.7258 38.8625L46.5248 38.6458C46.3455 38.6198 46.1631 38.6553 46.0031 38.7474C45.8431 38.8394 45.7134 38.9835 45.6319 39.1596C45.5504 39.3357 45.5213 39.5351 45.5485 39.7301C45.5757 39.925 45.658 40.1059 45.7838 40.2477L46.6327 41.1785C46.8453 41.4153 47.0041 41.7031 47.0962 42.0188C47.1883 42.3346 47.2112 42.6694 47.1632 42.9966L46.9677 44.3086C46.9433 44.5033 46.9755 44.7013 47.0587 44.8746Z" fill="#67E8F2" fill-opacity="0.8"/>
<path d="M14.4562 91.3171C14.7433 91.225 14.9971 91.0381 15.1826 90.7822C15.3682 90.5263 15.4763 90.2139 15.4921 89.8882C15.5044 89.5551 15.4254 89.2258 15.2632 88.9425L14.1571 87.1214C13.8817 86.662 13.7083 86.139 13.6507 85.5938C13.593 85.0487 13.6526 84.4964 13.8247 83.9807L14.5363 81.9098C14.6329 81.5962 14.6368 81.2574 14.5474 80.9413C14.458 80.6251 14.2798 80.3475 14.038 80.1475C13.7962 79.9476 13.503 79.8354 13.1996 79.8267C12.8962 79.818 12.5979 79.9133 12.3468 80.0992L10.6733 81.3063C10.2518 81.6069 9.77187 81.7963 9.27154 81.8594C8.77121 81.9225 8.26427 81.8575 7.79098 81.6698L5.89264 80.8994C5.60762 80.7932 5.29933 80.7865 5.01066 80.8802C4.72199 80.9739 4.46729 81.1634 4.28199 81.4222C4.0967 81.681 3.99002 81.9964 3.97681 82.3244C3.96359 82.6523 4.04449 82.9767 4.20825 83.2522L5.3351 85.1106C5.60034 85.5613 5.76812 86.0718 5.82577 86.6036C5.88342 87.1354 5.82942 87.6745 5.66787 88.1802L4.95391 90.2471C4.85675 90.5578 4.85075 90.8938 4.93675 91.2084C5.02274 91.523 5.19647 91.8006 5.43381 92.0027C5.67114 92.2047 5.96032 92.3213 6.26117 92.336C6.56203 92.3508 6.85965 92.2631 7.11271 92.0852L8.78213 90.8764C9.20574 90.5749 9.68828 90.3858 10.1911 90.3243C10.6938 90.2627 11.2028 90.3305 11.6772 90.5221L13.5788 91.2954C13.8627 91.402 14.1696 91.4089 14.4562 91.3171Z" fill="#67E8F2" fill-opacity="0.6"/>
<path d="M18.2688 48.5314C18.706 48.6584 19.1687 48.6344 19.5928 48.4627C20.017 48.291 20.3819 47.9801 20.6371 47.5728C20.8932 47.153 21.0284 46.66 21.0232 46.1551L20.9071 42.8551C20.8826 42.0257 21.0356 41.2015 21.3541 40.4478C21.6726 39.6942 22.1478 39.0317 22.742 38.513L25.1541 36.4472C25.505 36.1247 25.7542 35.6904 25.8667 35.2054C25.9791 34.7204 25.9491 34.2092 25.7809 33.7438C25.6126 33.2783 25.3147 32.8822 24.929 32.6111C24.5433 32.34 24.0892 32.2077 23.6309 32.2328L20.5987 32.3588C19.8375 32.3861 19.081 32.2197 18.3891 31.8726C17.6973 31.5256 17.0892 31.0075 16.6131 30.3596L14.7161 27.7384C14.4245 27.3571 14.031 27.0844 13.5905 26.9582C13.1501 26.832 12.6845 26.8586 12.2585 27.0342C11.8325 27.2099 11.4674 27.5259 11.2138 27.9383C10.9603 28.3507 10.831 28.839 10.8439 29.3352L10.96 32.7011C10.9777 33.5106 10.8264 34.3138 10.5175 35.0502C10.2086 35.7866 9.75017 36.4368 9.1769 36.9517L6.76453 39.0103C6.41501 39.3285 6.16505 39.7574 6.04935 40.2374C5.93365 40.7175 5.95794 41.225 6.11887 41.6893C6.2798 42.1536 6.56936 42.5519 6.94737 42.8286C7.32538 43.1054 7.77307 43.2471 8.2283 43.2339L11.2564 43.1022C12.021 43.0755 12.7807 43.2446 13.4746 43.5957C14.1684 43.9469 14.7771 44.4704 15.2519 45.1243L17.151 47.7519C17.4408 48.1328 17.8323 48.4045 18.2688 48.5314Z" fill="#67E8F2"/>
</g>
<defs>
<clipPath id="clip0_384_8827">
<rect width="166.914" height="96.6562" fill="white" transform="scale(1.00051)"/>
</clipPath>
</defs>
</svg>
