<svg width="20" height="20" viewBox="0 0 20 20" fill="none" xmlns="http://www.w3.org/2000/svg">
<path d="M18.3332 9.16667C18.3332 6.21877 18.3332 4.74481 17.4558 3.76075C17.3155 3.60336 17.1608 3.45779 16.9936 3.32572C15.9481 2.5 14.382 2.5 11.2498 2.5H8.74984C5.61769 2.5 4.05161 2.5 3.00605 3.32572C2.83882 3.45779 2.68416 3.60336 2.54384 3.76075C1.6665 4.74481 1.6665 6.21877 1.6665 9.16667C1.6665 12.1146 1.6665 13.5885 2.54384 14.5726C2.68416 14.73 2.83882 14.8755 3.00605 15.0076C4.05161 15.8333 5.61769 15.8333 8.74984 15.8333H9.99984" stroke="#f2f2f2" stroke-width="1.5" stroke-linecap="round" stroke-linejoin="round"/>
<path d="M1.6665 6.66699H18.3332" stroke="#f2f2f2" stroke-width="1.5" stroke-linejoin="round"/>
<path d="M13.4375 16.25V11.25M15 11.25V10M15 17.5V16.25M13.4375 13.75H16.5625M16.5625 13.75C17.0802 13.75 17.5 14.1697 17.5 14.6875V15.3125C17.5 15.8302 17.0802 16.25 16.5625 16.25H12.5M16.5625 13.75C17.0802 13.75 17.5 13.3302 17.5 12.8125V12.1875C17.5 11.6697 17.0802 11.25 16.5625 11.25H12.5" stroke="#f2f2f2" stroke-width="1.5" stroke-linecap="round" stroke-linejoin="round"/>
</svg>
