<svg viewBox="0 0 24 24" fill="none" xmlns="http://www.w3.org/2000/svg">
<path opacity="0.8" d="M15.3516 3.99375C15.1407 4.07344 15 4.275 15 4.5C15 4.725 15.1407 4.92656 15.3516 5.00625L18 6L18.9937 8.64844C19.0735 8.85937 19.2751 9 19.5 9C19.7249 9 19.9265 8.85937 20.0063 8.64844L21 6L23.6484 5.00625C23.8593 4.92656 24 4.725 24 4.5C24 4.275 23.8593 4.07344 23.6484 3.99375L21 3L20.0063 0.351563C19.9265 0.140625 19.7249 0 19.5 0C19.2751 0 19.0735 0.140625 18.9937 0.351563L18 3L15.3516 3.99375ZM9.61407 3.43593C9.49219 3.16875 9.225 3 8.93437 3C8.64375 3 8.37656 3.16875 8.25469 3.43593L5.77969 8.77969L0.435937 11.25C0.168751 11.3719 0 11.6391 0 11.9344C0 12.2297 0.168751 12.4922 0.435937 12.6141L5.78437 15.0844L8.25 20.4281C8.37188 20.6953 8.63907 20.864 8.92969 20.864C9.22031 20.864 9.48749 20.6953 9.60937 20.4281L12.0797 15.0797L17.4281 12.6094C17.6953 12.4875 17.864 12.2203 17.864 11.9297C17.864 11.6391 17.6953 11.3719 17.4281 11.25L12.0844 8.78437L9.61407 3.43593ZM18 18L15.3516 18.9937C15.1407 19.0735 15 19.2751 15 19.5C15 19.7249 15.1407 19.9265 15.3516 20.0063L18 21L18.9937 23.6484C19.0735 23.8593 19.2751 24 19.5 24C19.7249 24 19.9265 23.8593 20.0063 23.6484L21 21L23.6484 20.0063C23.8593 19.9265 24 19.7249 24 19.5C24 19.2751 23.8593 19.0735 23.6484 18.9937L21 18L20.0063 15.3516C19.9265 15.1407 19.7249 15 19.5 15C19.2751 15 19.0735 15.1407 18.9937 15.3516L18 18Z" fill="#6741FF"/>
</svg>
