<svg width="20" height="20" viewBox="0 0 20 20" fill="none" xmlns="http://www.w3.org/2000/svg">
<path d="M13.4375 17.083V12.083M15 12.083V10.833M15 18.333V17.083M13.4375 14.583H16.5625M16.5625 14.583C17.0802 14.583 17.5 15.0028 17.5 15.5205V16.1455C17.5 16.6633 17.0802 17.083 16.5625 17.083H12.5M16.5625 14.583C17.0802 14.583 17.5 14.1633 17.5 13.6455V13.0205C17.5 12.5028 17.0802 12.083 16.5625 12.083H12.5" stroke="#f2f2f2" stroke-width="1.5" stroke-linecap="round" stroke-linejoin="round"/>
<path d="M9.1665 4.16699C11.5235 4.16699 13.5353 4.16699 14.2676 4.83266C14.9998 5.49833 14.9998 6.19091 14.9998 8.33366L13.3332 7.50033" stroke="#f2f2f2" stroke-width="1.5" stroke-linecap="round" stroke-linejoin="round"/>
<path d="M9.99984 16.6667C7.64281 16.6667 5.63097 16.6667 4.89874 16.001C4.1665 15.3353 4.1665 14.6427 4.1665 12.5L5.83317 13.3333" stroke="#f2f2f2" stroke-width="1.5" stroke-linecap="round" stroke-linejoin="round"/>
<path d="M4.58333 2.70866C3.43274 2.70866 2.5 3.40822 2.5 4.27116C2.5 5.1341 3.43274 5.83366 4.58333 5.83366C5.73392 5.83366 6.66667 6.53322 6.66667 7.39616C6.66667 8.2591 5.73392 8.95866 4.58333 8.95866M4.58333 2.70866C5.49043 2.70866 6.26212 3.14345 6.54812 3.75033M4.58333 2.70866V1.66699M4.58333 8.95866C3.67623 8.95866 2.90454 8.52383 2.61854 7.91699M4.58333 8.95866V10.0003" stroke="#f2f2f2" stroke-width="1.5" stroke-linecap="round"/>
</svg>
