<svg width="50" height="50" viewBox="0 0 50 50" fill="none" xmlns="http://www.w3.org/2000/svg">
<g filter="url(#filter0_d_0_30)">
<rect x="5" y="3" width="40" height="40" rx="20" fill="#303030" shape-rendering="crispEdges"/>
<path d="M18.3334 22.166V25.4993C18.3334 28.2492 18.3334 29.6241 19.1876 30.4784C20.0419 31.3327 21.4168 31.3327 24.1667 31.3327H25.8334C28.5832 31.3327 29.9581 31.3327 30.8125 30.4784C31.6667 29.6241 31.6667 28.2492 31.6667 25.4993V22.166" stroke="white" stroke-width="1.5" stroke-linecap="round" stroke-linejoin="round"/>
<path d="M17.5 20.5007C17.5 19.8776 17.5 19.566 17.6675 19.334C17.7772 19.182 17.935 19.0557 18.125 18.968C18.4151 18.834 18.8045 18.834 19.5833 18.834H30.4167C31.1955 18.834 31.5849 18.834 31.875 18.968C32.065 19.0557 32.2228 19.182 32.3325 19.334C32.5 19.566 32.5 19.8776 32.5 20.5007C32.5 21.1237 32.5 21.4352 32.3325 21.6673C32.2228 21.8193 32.065 21.9456 31.875 22.0333C31.5849 22.1673 31.1955 22.1673 30.4167 22.1673H19.5833C18.8045 22.1673 18.4151 22.1673 18.125 22.0333C17.935 21.9456 17.7772 21.8193 17.6675 21.6673C17.5 21.4352 17.5 21.1237 17.5 20.5007Z" stroke="white" stroke-width="1.5" stroke-linejoin="round"/>
<path d="M20 16.1541C20 15.3323 20.6662 14.666 21.4881 14.666H21.7857C23.5609 14.666 25 16.1051 25 17.8803V18.8327H22.6786C21.1992 18.8327 20 17.6334 20 16.1541Z" stroke="white" stroke-width="1.5" stroke-linejoin="round"/>
<path d="M30 16.1541C30 15.3323 29.3338 14.666 28.5119 14.666H28.2142C26.4391 14.666 25 16.1051 25 17.8803V18.8327H27.3214C28.8007 18.8327 30 17.6334 30 16.1541Z" stroke="white" stroke-width="1.5" stroke-linejoin="round"/>
<path d="M25 22.166V31.3327" stroke="white" stroke-width="1.5" stroke-linecap="round" stroke-linejoin="round"/>
</g>
<defs>
<filter id="filter0_d_0_30" x="0" y="0" width="50" height="50" filterUnits="userSpaceOnUse" color-interpolation-filters="sRGB">
<feFlood flood-opacity="0" result="BackgroundImageFix"/>
<feColorMatrix in="SourceAlpha" type="matrix" values="0 0 0 0 0 0 0 0 0 0 0 0 0 0 0 0 0 0 127 0" result="hardAlpha"/>
<feOffset dy="2"/>
<feGaussianBlur stdDeviation="2.5"/>
<feComposite in2="hardAlpha" operator="out"/>
<feColorMatrix type="matrix" values="0 0 0 0 0.403922 0 0 0 0 0.254902 0 0 0 0 1 0 0 0 0.4 0"/>
<feBlend mode="normal" in2="BackgroundImageFix" result="effect1_dropShadow_0_30"/>
<feBlend mode="normal" in="SourceGraphic" in2="effect1_dropShadow_0_30" result="shape"/>
</filter>
</defs>
</svg>
