<svg viewBox="0 0 20 21" fill="none" xmlns="http://www.w3.org/2000/svg">
  <rect y="0.5" width="20" height="20" rx="10" fill="#26A17B" />
  <path fill-rule="evenodd" clip-rule="evenodd"
    d="M10.9532 10.8245V10.8235C10.8998 10.8274 10.6246 10.8439 10.0107 10.8439C9.52047 10.8439 9.17539 10.8293 9.05405 10.8235V10.825C7.16702 10.742 5.75854 10.4134 5.75854 10.0203C5.75854 9.62762 7.16702 9.29904 9.05405 9.21459V10.4979C9.17733 10.5066 9.53067 10.5275 10.0189 10.5275C10.6047 10.5275 10.8984 10.5032 10.9532 10.4983V9.21556C12.8364 9.29953 14.2415 9.62811 14.2415 10.0203C14.2415 10.4134 12.8364 10.741 10.9532 10.8245ZM10.9532 9.08209V7.93376H13.5809V6.18262H6.42638V7.93376H9.05405V9.08161C6.91852 9.17965 5.3125 9.60287 5.3125 10.1096C5.3125 10.6163 6.91852 11.039 9.05405 11.1375V14.8175H10.9532V11.1366C13.0854 11.0385 14.6875 10.6158 14.6875 10.1096C14.6875 9.60336 13.0854 9.18062 10.9532 9.08209Z"
    fill="white" />
</svg>