<svg width="20" height="20" viewBox="0 0 20 20" fill="none" xmlns="http://www.w3.org/2000/svg">
<path d="M16.4546 10.8337C17.1137 9.88883 17.5002 8.73966 17.5002 7.50033C17.5002 4.27867 14.8885 1.66699 11.6668 1.66699C8.44516 1.66699 5.8335 4.27866 5.8335 7.50033C5.8335 8.39499 6.0349 9.24258 6.39485 10.0003" stroke="#f2f2f2" stroke-width="1.5" stroke-linecap="round" stroke-linejoin="round"/>
<path d="M10.3647 9.72258V5.2781M11.6668 5.2781V4.16699M11.6668 10.8337V9.72258M10.3647 7.50033H12.9689M12.9689 7.50033C13.4004 7.50033 13.7502 7.87343 13.7502 8.33366V8.88924C13.7502 9.34949 13.4004 9.72258 12.9689 9.72258H9.5835M12.9689 7.50033C13.4004 7.50033 13.7502 7.12723 13.7502 6.66699V6.11143C13.7502 5.6512 13.4004 5.2781 12.9689 5.2781H9.5835" stroke="#f2f2f2" stroke-width="1.5" stroke-linecap="round" stroke-linejoin="round"/>
<path d="M2.5 11.667H4.49568C4.74081 11.667 4.98257 11.7222 5.20181 11.8283L6.90346 12.6517C7.1227 12.7577 7.36446 12.8129 7.60958 12.8129H8.47842C9.31875 12.8129 10 13.4722 10 14.2853C10 14.3182 9.9775 14.3471 9.94483 14.3561L7.82739 14.9416C7.44756 15.0466 7.04083 15.01 6.6875 14.839L4.86843 13.9589M10 13.7503L13.8273 12.5744C14.5058 12.363 15.2392 12.6137 15.6642 13.2022C15.9716 13.6277 15.8464 14.2372 15.3987 14.4955L9.13575 18.1091C8.73742 18.3389 8.26745 18.395 7.8293 18.265L2.5 16.6836" stroke="#f2f2f2" stroke-width="1.5" stroke-linecap="round" stroke-linejoin="round"/>
</svg>
